<svg xmlns="http://www.w3.org/2000/svg" width="29" height="30" viewBox="0 0 29 30" fill="none">
  <path d="M5.39286 1.25L1 6.63562V25.4853C1 26.1995 1.30854 26.8844 1.85776 27.3894C2.40697 27.8944 3.15187 28.1781 3.92857 28.1781H24.4286C25.2053 28.1781 25.9502 27.8944 26.4994 27.3894C27.0486 26.8844 27.3571 26.1995 27.3571 25.4853V6.63562L22.9643 1.25H5.39286Z" stroke="#383838" stroke-width="2" stroke-linecap="round" stroke-linejoin="round"/>
  <path d="M1 6.63477H27.3571" stroke="#383838" stroke-width="2" stroke-linecap="round" stroke-linejoin="round"/>
  <path d="M20.0357 12.0215C20.0357 13.4498 19.4186 14.8197 18.3202 15.8297C17.2218 16.8397 15.732 17.4071 14.1786 17.4071C12.6252 17.4071 11.1354 16.8397 10.0369 15.8297C8.93852 14.8197 8.32143 13.4498 8.32143 12.0215" stroke="#383838" stroke-width="2" stroke-linecap="round" stroke-linejoin="round"/>
</svg>