<svg xmlns="http://www.w3.org/2000/svg" width="31" height="34" viewBox="0 0 31 34" fill="none">
  <path d="M1 7.40039H4.2H29.8" stroke="#121212" stroke-width="2" stroke-linecap="round" stroke-linejoin="round"/>
  <path d="M26.6002 7.4V29.8C26.6002 30.6487 26.2631 31.4626 25.6629 32.0627C25.0628 32.6629 24.2489 33 23.4002 33H7.4002C6.5515 33 5.73757 32.6629 5.13745 32.0627C4.53734 31.4626 4.2002 30.6487 4.2002 29.8V7.4M9.0002 7.4V4.2C9.0002 3.35131 9.33734 2.53737 9.93745 1.93726C10.5376 1.33714 11.3515 1 12.2002 1H18.6002C19.4489 1 20.2628 1.33714 20.8629 1.93726C21.4631 2.53737 21.8002 3.35131 21.8002 4.2V7.4" stroke="#121212" stroke-width="2" stroke-linecap="round" stroke-linejoin="round"/>
  <path d="M12.1992 15.4004V25.0004" stroke="#121212" stroke-width="2" stroke-linecap="round" stroke-linejoin="round"/>
  <path d="M18.6006 15.4004V25.0004" stroke="#121212" stroke-width="2" stroke-linecap="round" stroke-linejoin="round"/>
</svg>